<svg width="12" height="12" viewBox="0 0 12 12" fill="currentColor" xmlns="http://www.w3.org/2000/svg">
<path d="M7.1178 1.03809L7.22034 1.05469C7.32121 1.07821 7.41616 1.12296 7.49963 1.18555L7.50745 1.19043L8.75159 2.16016L8.81604 2.2168C8.8567 2.25658 8.89281 2.30071 8.92346 2.34863L8.96545 2.42285L8.99866 2.50195C9.02714 2.58225 9.04163 2.66731 9.04163 2.75293C9.04158 2.86718 9.01571 2.9804 8.96545 3.08301C8.9157 3.18448 8.84246 3.2721 8.75354 3.3418L8.75452 3.34277L7.52014 4.31738C7.40983 4.40456 7.27708 4.45917 7.13733 4.47461C6.99766 4.49003 6.85672 4.46522 6.7301 4.4043C6.60345 4.34332 6.49561 4.24872 6.42053 4.12988C6.34545 4.01101 6.30594 3.87302 6.3053 3.73242V3.4873C5.75134 3.49467 5.2021 3.6025 4.68518 3.80859C4.2241 4.03408 3.82881 4.37486 3.53772 4.79785C3.24317 5.22588 3.06537 5.72344 3.02209 6.24121C2.97884 6.759 3.07219 7.27902 3.29163 7.75C3.5111 8.22101 3.84972 8.6268 4.27405 8.92676H4.27307C4.72039 9.24263 5.24629 9.42933 5.7926 9.4668C6.33902 9.50422 6.88542 9.39066 7.3717 9.13867C7.85796 8.88669 8.26591 8.50606 8.55042 8.03809C8.83486 7.57015 8.98509 7.03297 8.98499 6.48535C8.98499 6.28649 9.06414 6.09572 9.20471 5.95508L9.31897 5.86133C9.44128 5.77975 9.5858 5.73536 9.73499 5.73535L9.88245 5.75C9.97838 5.76924 10.0696 5.80705 10.151 5.86133L10.2653 5.95508L10.359 6.06934C10.4405 6.19161 10.485 6.33624 10.485 6.48535V6.48828C10.4799 7.2494 10.283 7.99712 9.91272 8.66211C9.5424 9.32712 9.01022 9.8878 8.36584 10.293L8.36487 10.2949C7.71445 10.7004 6.97035 10.9318 6.20471 10.9678C5.43922 11.0037 4.67726 10.8427 3.99182 10.5C3.3063 10.1572 2.72025 9.64384 2.28967 9.00977C1.85909 8.37566 1.59862 7.64159 1.53284 6.87793L1.53186 6.87695C1.48167 6.28353 1.5499 5.68552 1.73303 5.11816C1.91611 4.55104 2.2103 4.02561 2.59827 3.57324C2.98617 3.12103 3.46033 2.7507 3.9928 2.4834C4.52517 2.21618 5.10557 2.0575 5.69983 2.0166L5.98303 2.00293C6.08948 1.9999 6.19566 1.99878 6.30042 1.99902V1.78516C6.30042 1.64587 6.33852 1.50911 6.41174 1.39062L6.47229 1.30664C6.53852 1.22668 6.62095 1.16104 6.71448 1.11426L6.81018 1.07422C6.87576 1.0521 6.94418 1.03952 7.01331 1.03613L7.1178 1.03809Z" fill="currentColor" stroke="black"/>
</svg>
